<svg xmlns="http://www.w3.org/2000/svg" xmlns:xlink="http://www.w3.org/1999/xlink" width="249" height="470" viewBox="0 0 249 470">
  <defs>
    <rect id="rect-1" width="249" height="470" x="0" y="0"/>
    <mask id="mask-2" maskContentUnits="userSpaceOnUse" maskUnits="userSpaceOnUse">
      <rect width="249" height="470" x="0" y="0" fill="black"/>
      <use fill="white" xlink:href="#rect-1"/>
    </mask>
    <rect id="rect-16" width="8.465" height="8.785" x="89.936" y="415.46" rx="0" ry="0"/>
    <rect id="rect-17" width="8.465" height="8.785" x="75.829" y="415.46" rx="0" ry="0"/>
    <rect id="rect-18" width="8.465" height="8.785" x="61.721" y="415.46" rx="0" ry="0"/>
    <ellipse id="ellipse-19" cx="39.854" cy="174.969" rx="11.286" ry="12.079"/>
    <ellipse id="ellipse-20" cx="96.99" cy="150.81" rx="11.286" ry="12.079"/>
    <ellipse id="ellipse-21" cx="96.99" cy="251.838" rx="11.286" ry="12.079"/>
    <ellipse id="ellipse-22" cx="96.99" cy="201.324" rx="11.286" ry="12.079"/>
    <ellipse id="ellipse-23" cx="39.854" cy="225.483" rx="11.286" ry="12.079"/>
    <ellipse id="ellipse-24" cx="153.421" cy="174.969" rx="11.286" ry="12.079"/>
    <ellipse id="ellipse-25" cx="211.262" cy="200.592" rx="11.286" ry="12.079"/>
    <ellipse id="ellipse-26" cx="153.421" cy="225.483" rx="11.286" ry="12.079"/>
  </defs>
  <g>
    <use fill="none" xlink:href="#rect-1"/>
    <g mask="url(#mask-2)">
      <g>
        <path fill="none" stroke="rgb(255,255,255)" stroke-dasharray="0 0 0 0" stroke-linecap="butt" stroke-linejoin="miter" stroke-width="10" d="M91.7655698 397.52336449C38.61473104 342.88691503-3.82142726 281.506806 5.53098583 210.90406636 11.02184193 169.45278679 51.76567365 99.78876232 124.8054179 3.8192226c.1611305-.21171529-.08964776-.21171529-.7523341 0"/>
        <path fill="none" stroke="rgb(255,255,255)" stroke-dasharray="0 0 0 0" stroke-linecap="butt" stroke-linejoin="miter" stroke-width="10" d="M157.94003388 397.52339953c53.15077747-54.63650916 95.58686646-116.01666585 86.23437466-186.619395-5.49090286-41.4512734-46.23481303-111.1152521-119.27466501-207.08470978-.16113075-.2117151.08964752-.21171538.7523341-8.4e-7"/>
        <path fill="none" stroke="rgb(255,255,255)" stroke-dasharray="0 0 0 0" stroke-linecap="square" stroke-linejoin="miter" stroke-width="5" d="M126.6161473 397.84182243l-.70538243-133.14470405"/>
        <path fill="none" stroke="rgb(255,255,255)" stroke-dasharray="0 0 0 0" stroke-linecap="square" stroke-linejoin="miter" stroke-width="5" d="M125.91076487 138.68294393v-98.0521028"/>
        <path fill="none" stroke="rgb(255,255,255)" stroke-dasharray="0 0 0 0" stroke-linecap="square" stroke-linejoin="miter" stroke-width="5" d="M125.25649205 77.50405765L112.9561836 63.81594578"/>
        <path fill="none" stroke="rgb(255,255,255)" stroke-dasharray="0 0 0 0" stroke-linecap="square" stroke-linejoin="miter" stroke-width="5" d="M124.7039834 122.7255037l-20.96260184-23.30528995"/>
        <path fill="none" stroke="rgb(255,255,255)" stroke-dasharray="0 0 0 0" stroke-linecap="square" stroke-linejoin="miter" stroke-width="5" d="M129.24572977 346.76164334l20.56460624-22.88257126"/>
        <path fill="none" stroke="rgb(255,255,255)" stroke-dasharray="0 0 0 0" stroke-linecap="square" stroke-linejoin="miter" stroke-width="5" d="M128.07277456 99.5287338l19.70483332-22.29354238"/>
        <path fill="none" stroke="rgb(255,255,255)" stroke-dasharray="0 0 0 0" stroke-linecap="square" stroke-linejoin="miter" stroke-width="5" d="M124.92093363 327.17191916l-31.18485769-34.6575257"/>
        <path fill="none" stroke="rgb(255,255,255)" stroke-dasharray="0 0 0 0" stroke-linecap="square" stroke-linejoin="miter" stroke-width="5" d="M126.9097465 306.94953583l26.2619602-28.73296105"/>
      </g>
      <g>
        <path fill="none" stroke="rgb(255,255,255)" stroke-dasharray="0 0 0 0" stroke-linecap="butt" stroke-linejoin="miter" stroke-width="5" d="M126.6539953 407.9260433v5.09391908c0 4.04320612 3.1581044 7.32087228 7.05382437 7.32087228h59.93298023c3.3031952 0 5.98096448 2.77914565 5.98096448 6.20739564s-2.67776928 6.20739564-5.98096448 6.20739564H34.1484076c-3.3031956 0-5.9809647 2.77914573-5.9809647 6.20739564 0 3.42824999 2.6777691 6.20739571 5.9809647 6.20739571h206.98909857c3.3031952 0 5.98096448 2.77914544 5.98096448 6.20739572 0 3.42824954-2.67776928 6.20739542-5.98096448 6.20739542H92.63852847c-3.89571963 0-7.05382436 3.27766652-7.05382436 7.32087227V470h0"/>
        <g>
          <path fill="rgb(255,255,255)" fill-rule="evenodd" d="M107.80678558 394.05810547c-1.603508 0-2.9079361 1.07894897-2.9079361 2.4052124 0 1.32623291 1.3044281 2.40527344 2.9079361 2.40527344.88184357 0 1.76226807.10076904 2.64285279.28607178v11.67669677c-.59523774.12445069-1.19147492.2104187-1.78888703.25286866v-7.71688843c0-.39013672-.38231659-.70635987-.85396576-.70635987s-.85395813.31622315-.85395813.70635987v7.85394287c-1.18804168.30258179-2.05397796 1.21878052-2.05397796 2.29937744 0 1.32626343 1.3044281 2.40527344 2.9079361 2.40527344 6.77333068 0 12.64346313-3.62924195 18.52682494-7.76565552 5.70711518 4.01501465 11.66147614 7.76565552 18.52698517 7.76565552 1.60343933 0 2.90794373-1.07894898 2.90794373-2.40527344 0-1.02658081-.78186035-1.90463257-1.87872315-2.24917602v-12.55886841c1.0968628-.34454346 1.87872315-1.22259522 1.87872315-2.24917603 0-1.32626343-1.3044281-2.40533447-2.90794373-2.40533447-6.78889465 0-12.65107727 3.63394165-18.52681732 7.76571655-5.70710754-4.01513672-11.66147613-7.76571655-18.5269928-7.76571655zm37.87006379 2.2074585c0-.54727173-.53837586-.99258423-1.20001221-.99258423-6.1390686 0-11.65997315 3.39004516-17.21268463 7.2833557.1945877.13842774.38900757.27682496.58309173.41503907.42149353.30001831.84106446.59893799 1.25921631.89508057 5.03300476-3.52023316 10.0097351-6.60830689 15.37037659-6.60830689.66163635 0 1.2000122-.44525146 1.2000122-.99258423zm-.81625367 16.2625122c.66163636-.00006103 1.20001221.44525147 1.20001221.99258423 0 .54727173-.53837585.99258423-1.2000122.99258423-6.99562073 0-13.25576783-4.45788574-19.30978394-8.76904297-5.98542786-4.26229858-11.63903046-8.28817749-17.74394226-8.28817749-.66163636 0-1.20001984-.4453125-1.20001984-.99258423s.53838348-.99258423 1.20001984-.99258423c6.99562835 0 13.25577545 4.45788575 19.30978393 8.76904297 5.98542786 4.26223755 11.63903809 8.2881775 17.74394226 8.2881775zm-1.29721069-1.43292236c-.59658813-.0342102-1.19273376-.11245728-1.78889465-.23028565v-11.74795532c.5952301-.11676025 1.19139099-.19482422 1.78889465-.2288208v12.20706177zm-5.2464447-10.83868408c.62579345-.26809693 1.2519226-.50384522 1.8787384-.70129395v10.8687439c-.62554932-.19787598-1.25160217-.43411255-1.8787384-.7033081v-9.46414185zm-25.67646027-.64047242c.6254654.20492554 1.25151062.4480896 1.87873078.72332764v9.31219483c-.62587738.27410888-1.25193024.51629638-1.87873078.7208252V399.6159973zm22.22064972 8.25299073c.62814331.37161255 1.25419617.72094726 1.8787384 1.04278564v-7.847229c-.62605285.32266235-1.252182.67227173-1.8787384 1.04360962v5.76083374zm-18.76474762.9590454c.6259613-.32763671 1.25209808-.68182372 1.87873078-1.05706786v-5.55194092c-.62822724-.37548828-1.25427247-.7293396-1.87873078-1.05609131v7.6651001zm14.50054169-3.8363037c.9068756.63162231 1.80705261 1.24328613 2.70204162 1.81991577v-3.64331055c-.89849853.58032227-1.79876709 1.19372559-2.70204162 1.82339478zm-11.05646515-1.70599366c.8372116.54318238 1.6791153 1.1161499 2.52688599 1.70648194-.84458924.58874511-1.68649292 1.16323852-2.526886 1.70980835v-3.41629029zm-12.54992676 10.4326477c0 .54727174.53838349.99258424 1.20001984.99258424 6.12467193 0 11.6524353-3.38574219 17.212677-7.28341675-.19450378-.1383667-.38892365-.2767334-.58300781-.41497803-.42149353-.30007934-.84106446-.59893799-1.25921631-.89508056-1.35549927.94812011-2.7070694 1.8645935-4.06290436 2.69796753-.07878876.07318115-.17541504.13262939-.2845993.17367553-3.58648682 2.17196655-7.20822144 3.73666382-11.02294922 3.73666382-.66163635 0-1.20001984.44525147-1.20001984.99258423z"/>
          <path fill="rgb(255,255,255)" fill-rule="evenodd" d="M108.53725671 398.7357856l2.7e-7.48599002c3e-7.53678073.56448213.97188435 1.26087389.97188396.69639178-4e-7 1.2608731-.43510465 1.2608728-.97188538l-2.7e-7-.48599001c-3e-7-.53678073-.56448211-.97188435-1.2608739-.97188396-.69639175 3.9e-7-1.2608731.43510465-1.26087279.97188537z"/>
        </g>
        <g>
          <g>
            <use fill="rgb(255,255,255)" xlink:href="#rect-16"/>
            <use fill-opacity="0" stroke="rgb(255,255,255)" stroke-dasharray="0 0 0 0" stroke-linecap="butt" stroke-linejoin="miter" stroke-width="1" xlink:href="#rect-16"/>
          </g>
          <g>
            <use fill="rgb(255,255,255)" xlink:href="#rect-17"/>
            <use fill-opacity="0" stroke="rgb(255,255,255)" stroke-dasharray="0 0 0 0" stroke-linecap="butt" stroke-linejoin="miter" stroke-width="1" xlink:href="#rect-17"/>
          </g>
          <g>
            <use fill="rgb(255,255,255)" xlink:href="#rect-18"/>
            <use fill-opacity="0" stroke="rgb(255,255,255)" stroke-dasharray="0 0 0 0" stroke-linecap="butt" stroke-linejoin="miter" stroke-width="1" xlink:href="#rect-18"/>
          </g>
        </g>
      </g>
      <g>
        <g>
          <use fill="rgb(255,255,255)" xlink:href="#ellipse-19"/>
          <use fill-opacity="0" stroke="rgb(255,255,255)" stroke-dasharray="0 0 0 0" stroke-linecap="butt" stroke-linejoin="miter" stroke-width="1" xlink:href="#ellipse-19"/>
        </g>
        <g>
          <use fill="rgb(0,0,0)" xlink:href="#ellipse-20"/>
          <use fill-opacity="0" stroke="rgb(255,255,255)" stroke-dasharray="0 0 0 0" stroke-linecap="butt" stroke-linejoin="miter" stroke-width="1" xlink:href="#ellipse-20"/>
        </g>
        <g>
          <use fill="rgb(0,0,0)" xlink:href="#ellipse-21"/>
          <use fill-opacity="0" stroke="rgb(255,255,255)" stroke-dasharray="0 0 0 0" stroke-linecap="butt" stroke-linejoin="miter" stroke-width="1" xlink:href="#ellipse-21"/>
        </g>
        <g>
          <use fill="rgb(0,0,0)" xlink:href="#ellipse-22"/>
          <use fill-opacity="0" stroke="rgb(255,255,255)" stroke-dasharray="0 0 0 0" stroke-linecap="butt" stroke-linejoin="miter" stroke-width="1" xlink:href="#ellipse-22"/>
        </g>
        <g>
          <use fill="rgb(255,255,255)" xlink:href="#ellipse-23"/>
          <use fill-opacity="0" stroke="rgb(255,255,255)" stroke-dasharray="0 0 0 0" stroke-linecap="butt" stroke-linejoin="miter" stroke-width="1" xlink:href="#ellipse-23"/>
        </g>
        <g>
          <use fill="rgb(0,0,0)" xlink:href="#ellipse-24"/>
          <use fill-opacity="0" stroke="rgb(255,255,255)" stroke-dasharray="0 0 0 0" stroke-linecap="butt" stroke-linejoin="miter" stroke-width="1" xlink:href="#ellipse-24"/>
        </g>
        <g>
          <use fill="rgb(255,255,255)" xlink:href="#ellipse-25"/>
          <use fill-opacity="0" stroke="rgb(255,255,255)" stroke-dasharray="0 0 0 0" stroke-linecap="butt" stroke-linejoin="miter" stroke-width="1" xlink:href="#ellipse-25"/>
        </g>
        <g>
          <use fill="rgb(0,0,0)" xlink:href="#ellipse-26"/>
          <use fill-opacity="0" stroke="rgb(255,255,255)" stroke-dasharray="0 0 0 0" stroke-linecap="butt" stroke-linejoin="miter" stroke-width="1" xlink:href="#ellipse-26"/>
        </g>
        <path fill="none" stroke="rgb(255,255,255)" stroke-dasharray="0 0 0 0" stroke-linecap="square" stroke-linejoin="miter" stroke-width="1" d="M51.75884703 175.41176012l34.03188102-24.31261682"/>
        <path fill="none" stroke="rgb(255,255,255)" stroke-dasharray="0 0 0 0" stroke-linecap="square" stroke-linejoin="miter" stroke-width="1" d="M51.75884703 175.24923676l34.03188102 25.79436137"/>
        <path fill="none" stroke="rgb(255,255,255)" stroke-dasharray="0 0 0 0" stroke-linecap="square" stroke-linejoin="miter" stroke-width="1" d="M51.75884703 175.25362928l34.03188102 76.29959502"/>
        <path fill="none" stroke="rgb(255,255,255)" stroke-dasharray="0 0 0 0" stroke-linecap="square" stroke-linejoin="miter" stroke-width="1" d="M51.75884703 225.927243l34.03188102-74.82956387"/>
        <path fill="none" stroke="rgb(255,255,255)" stroke-dasharray="0 0 0 0" stroke-linecap="square" stroke-linejoin="miter" stroke-width="1" d="M51.75884703 225.92577882l34.03188102-24.31261683"/>
        <path fill="none" stroke="rgb(255,255,255)" stroke-dasharray="5 5 5 5" stroke-linecap="square" stroke-linejoin="miter" stroke-width="1" d="M51.75884703 225.76325545l34.03188102 25.79436137"/>
        <path fill="none" stroke="rgb(255,255,255)" stroke-dasharray="0 0 0 0" stroke-linecap="square" stroke-linejoin="miter" stroke-width="1" d="M108.89482436 151.0991433l34.03188102 24.31261682"/>
        <path fill="none" stroke="rgb(255,255,255)" stroke-dasharray="0 0 0 0" stroke-linecap="square" stroke-linejoin="miter" stroke-width="1" d="M108.89482436 151.09767913l34.03188102 74.82956386"/>
        <path fill="none" stroke="rgb(255,255,255)" stroke-dasharray="0 0 0 0" stroke-linecap="square" stroke-linejoin="miter" stroke-width="1" d="M108.89482436 201.04359813l34.03188102-25.79436137"/>
        <path fill="none" stroke="rgb(255,255,255)" stroke-dasharray="0 0 0 0" stroke-linecap="square" stroke-linejoin="miter" stroke-width="1" d="M108.89482436 201.613162l34.03188102 24.31261682"/>
        <path fill="none" stroke="rgb(255,255,255)" stroke-dasharray="0 0 0 0" stroke-linecap="square" stroke-linejoin="miter" stroke-width="1" d="M108.89482436 251.55761682l34.03188102-25.79436137"/>
        <path fill="none" stroke="rgb(255,255,255)" stroke-dasharray="0 0 0 0" stroke-linecap="square" stroke-linejoin="miter" stroke-width="1" d="M108.89482436 251.5532243l34.03188102-76.29959502"/>
        <path fill="none" stroke="rgb(255,255,255)" stroke-dasharray="0 0 0 0" stroke-linecap="square" stroke-linejoin="miter" stroke-width="1" d="M165.32541926 175.25362928l34.03188102 25.0534891"/>
        <path fill="none" stroke="rgb(255,255,255)" stroke-dasharray="0 0 0 0" stroke-linecap="square" stroke-linejoin="miter" stroke-width="1" d="M165.32541926 225.92577882l34.03188102-24.31261683"/>
      </g>
    </g>
  </g>
</svg>
